<mxfile host="Electron" agent="Mozilla/5.0 (Macintosh; Intel Mac OS X 10_15_7) AppleWebKit/537.36 (KHTML, like Gecko) draw.io/28.0.4 Chrome/138.0.7204.97 Electron/37.2.1 Safari/537.36" version="28.0.4" pages="4">
  <diagram id="0d47ca636da4489a" name="Apache Pulsar Graph Tb">
    <mxGraphModel dx="706" dy="604" grid="1" gridSize="10" guides="1" tooltips="1" connect="1" arrows="1" fold="1" page="1" pageScale="1" pageWidth="827" pageHeight="1169" math="0" shadow="0">
      <root>
        <mxCell id="0" />
        <mxCell id="1" parent="0" />
        <UserObject label="" mermaidData="{&quot;data&quot;:&quot;graph TB\n    subgraph \&quot;Pulsar Cluster\&quot;\n        subgraph \&quot;Broker Layer\&quot;\n            B1[Broker 1]\n            B2[Broker 2]\n            B3[Broker 3]\n        end\n        \n        subgraph \&quot;Storage Layer\&quot;\n            BK1[BookKeeper 1]\n            BK2[BookKeeper 2]\n            BK3[BookKeeper 3]\n        end\n        \n        subgraph \&quot;Coordination\&quot;\n            ZK[ZooKeeper]\n        end\n    end\n    \n    subgraph \&quot;Namespace Structure\&quot;\n        TENANT[Tenant: company]\n        NS[Namespace: team/app]\n        TOPIC[Topic: events]\n    end\n    \n    subgraph \&quot;Clients\&quot;\n        PROD[Producers]\n        CONS[Consumers]\n        READER[Readers]\n    end\n    \n    PROD --&gt; B1\n    CONS --&gt; B2\n    READER --&gt; B3\n    \n    B1 --&gt; BK1\n    B2 --&gt; BK2\n    B3 --&gt; BK3\n    \n    ZK --&gt; B1\n    ZK --&gt; B2\n    ZK --&gt; B3\n    \n    TENANT --&gt; NS\n    NS --&gt; TOPIC&quot;}" id="55199a367d0c4edb">
          <mxCell style="shape=image;noLabel=1;verticalAlign=top;imageAspect=1;image=data:image/svg+xml,PHN2ZyB3aWR0aD0iMjAwIiBoZWlnaHQ9IjIwMCIgeG1sbnM9Imh0dHA6Ly93d3cudzMub3JnLzIwMDAvc3ZnIj48cmVjdCB3aWR0aD0iMjAwIiBoZWlnaHQ9IjIwMCIgZmlsbD0iI2Y5ZjlmOSIgc3Ryb2tlPSIjY2NjIi8+PHRleHQgeD0iMTAwIiB5PSIxMDAiIHRleHQtYW5jaG9yPSJtaWRkbGUiIGZvbnQtZmFtaWx5PSJBcmlhbCIgZm9udC1zaXplPSIxNCIgZmlsbD0iIzMzMyI+TWVybWFpZCBEaWFncmFtPC90ZXh0Pjwvc3ZnPg==;" vertex="1" parent="1">
            <mxGeometry x="260" y="130" width="200" height="200" as="geometry" />
          </mxCell>
        </UserObject>
      </root>
    </mxGraphModel>
  </diagram>
  <diagram id="2764a4cbb84c46d2" name="Apache Pulsar Graph Tb 2">
    <mxGraphModel dx="706" dy="604" grid="1" gridSize="10" guides="1" tooltips="1" connect="1" arrows="1" fold="1" page="1" pageScale="1" pageWidth="827" pageHeight="1169" math="0" shadow="0">
      <root>
        <mxCell id="0" />
        <mxCell id="1" parent="0" />
        <UserObject label="" mermaidData="{&quot;data&quot;:&quot;graph TB\n    subgraph \&quot;Pulsar Cluster\&quot;\n        subgraph \&quot;Broker Tier\&quot;\n            B1[Pulsar Broker 1]\n            B2[Pulsar Broker 2]\n        end\n        \n        subgraph \&quot;Storage Tier\&quot;\n            BK1[BookKeeper 1]\n            BK2[BookKeeper 2]\n            BK3[BookKeeper 3]\n        end\n        \n        subgraph \&quot;Coordination\&quot;\n            ZK1[ZooKeeper 1]\n            ZK2[ZooKeeper 2]\n            ZK3[ZooKeeper 3]\n        end\n        \n        subgraph \&quot;Management\&quot;\n            ADMIN[Pulsar Admin]\n            PROXY[Pulsar Proxy]\n            MANAGER[Pulsar Manager]\n        end\n    end\n    \n    subgraph \&quot;Clients\&quot;\n        PRODUCER[Producers]\n        CONSUMER[Consumers]\n        FUNCTION[Pulsar Functions]\n    end\n    \n    PRODUCER --&gt; PROXY\n    CONSUMER --&gt; PROXY\n    FUNCTION --&gt; PROXY\n    \n    PROXY --&gt; B1\n    PROXY --&gt; B2\n    \n    B1 --&gt; BK1\n    B1 --&gt; BK2\n    B2 --&gt; BK2\n    B2 --&gt; BK3\n    \n    ZK1 --&gt; ZK2\n    ZK2 --&gt; ZK3\n    ZK3 --&gt; ZK1\n    \n    ZK1 --&gt; B1\n    ZK2 --&gt; B2\n    \n    ADMIN --&gt; B1\n    MANAGER --&gt; B1&quot;}" id="fdc8198efe044109">
          <mxCell style="shape=image;noLabel=1;verticalAlign=top;imageAspect=1;image=data:image/svg+xml,PHN2ZyB3aWR0aD0iMjAwIiBoZWlnaHQ9IjIwMCIgeG1sbnM9Imh0dHA6Ly93d3cudzMub3JnLzIwMDAvc3ZnIj48cmVjdCB3aWR0aD0iMjAwIiBoZWlnaHQ9IjIwMCIgZmlsbD0iI2Y5ZjlmOSIgc3Ryb2tlPSIjY2NjIi8+PHRleHQgeD0iMTAwIiB5PSIxMDAiIHRleHQtYW5jaG9yPSJtaWRkbGUiIGZvbnQtZmFtaWx5PSJBcmlhbCIgZm9udC1zaXplPSIxNCIgZmlsbD0iIzMzMyI+TWVybWFpZCBEaWFncmFtPC90ZXh0Pjwvc3ZnPg==;" vertex="1" parent="1">
            <mxGeometry x="260" y="130" width="200" height="200" as="geometry" />
          </mxCell>
        </UserObject>
      </root>
    </mxGraphModel>
  </diagram>
  <diagram id="f8a26ea77cb34816" name="Apache Pulsar Graph Tb 3">
    <mxGraphModel dx="706" dy="604" grid="1" gridSize="10" guides="1" tooltips="1" connect="1" arrows="1" fold="1" page="1" pageScale="1" pageWidth="827" pageHeight="1169" math="0" shadow="0">
      <root>
        <mxCell id="0" />
        <mxCell id="1" parent="0" />
        <UserObject label="" mermaidData="{&quot;data&quot;:&quot;graph TB\n    subgraph \&quot;US-East Cluster\&quot;\n        subgraph \&quot;US Brokers\&quot;\n            USB1[US Broker 1]\n            USB2[US Broker 2]\n        end\n        \n        subgraph \&quot;US Storage\&quot;\n            USBK1[US BookKeeper 1]\n            USBK2[US BookKeeper 2]\n        end\n        \n        subgraph \&quot;US Coordination\&quot;\n            USZK[US ZooKeeper]\n        end\n    end\n    \n    subgraph \&quot;EU-West Cluster\&quot;\n        subgraph \&quot;EU Brokers\&quot;\n            EUB1[EU Broker 1]\n            EUB2[EU Broker 2]\n        end\n        \n        subgraph \&quot;EU Storage\&quot;\n            EUBK1[EU BookKeeper 1]\n            EUBK2[EU BookKeeper 2]\n        end\n        \n        subgraph \&quot;EU Coordination\&quot;\n            EUZK[EU ZooKeeper]\n        end\n    end\n    \n    subgraph \&quot;Asia-Pacific Cluster\&quot;\n        subgraph \&quot;AP Brokers\&quot;\n            APB1[AP Broker 1]\n            APB2[AP Broker 2]\n        end\n        \n        subgraph \&quot;AP Storage\&quot;\n            APBK1[AP BookKeeper 1]\n            APBK2[AP BookKeeper 2]\n        end\n        \n        subgraph \&quot;AP Coordination\&quot;\n            APZK[AP ZooKeeper]\n        end\n    end\n    \n    subgraph \&quot;Global Configuration\&quot;\n        GLOBAL[Global ZooKeeper]\n    end\n    \n    USB1 --&gt; USBK1\n    USB2 --&gt; USBK2\n    \n    EUB1 --&gt; EUBK1\n    EUB2 --&gt; EUBK2\n    \n    APB1 --&gt; APBK1\n    APB2 --&gt; APBK2\n    \n    USZK --&gt; USB1\n    EUZK --&gt; EUB1\n    APZK --&gt; APB1\n    \n    GLOBAL --&gt; USZK\n    GLOBAL --&gt; EUZK\n    GLOBAL --&gt; APZK\n    \n    USB1 -.-&gt; EUB1\n    EUB1 -.-&gt; APB1\n    APB1 -.-&gt; USB1&quot;}" id="9bf7edd30a73409c">
          <mxCell style="shape=image;noLabel=1;verticalAlign=top;imageAspect=1;image=data:image/svg+xml,PHN2ZyB3aWR0aD0iMjAwIiBoZWlnaHQ9IjIwMCIgeG1sbnM9Imh0dHA6Ly93d3cudzMub3JnLzIwMDAvc3ZnIj48cmVjdCB3aWR0aD0iMjAwIiBoZWlnaHQ9IjIwMCIgZmlsbD0iI2Y5ZjlmOSIgc3Ryb2tlPSIjY2NjIi8+PHRleHQgeD0iMTAwIiB5PSIxMDAiIHRleHQtYW5jaG9yPSJtaWRkbGUiIGZvbnQtZmFtaWx5PSJBcmlhbCIgZm9udC1zaXplPSIxNCIgZmlsbD0iIzMzMyI+TWVybWFpZCBEaWFncmFtPC90ZXh0Pjwvc3ZnPg==;" vertex="1" parent="1">
            <mxGeometry x="260" y="130" width="200" height="200" as="geometry" />
          </mxCell>
        </UserObject>
      </root>
    </mxGraphModel>
  </diagram>
  <diagram id="c7fe88cc5a04442f" name="Apache Pulsar Graph Tb 4">
    <mxGraphModel dx="706" dy="604" grid="1" gridSize="10" guides="1" tooltips="1" connect="1" arrows="1" fold="1" page="1" pageScale="1" pageWidth="827" pageHeight="1169" math="0" shadow="0">
      <root>
        <mxCell id="0" />
        <mxCell id="1" parent="0" />
        <UserObject label="" mermaidData="{&quot;data&quot;:&quot;graph TB\n    subgraph \&quot;Production Environment\&quot;\n        subgraph \&quot;Availability Zone 1\&quot;\n            B1[Broker 1]\n            BK1[BookKeeper 1]\n            ZK1[ZooKeeper 1]\n            P1[Proxy 1]\n        end\n        \n        subgraph \&quot;Availability Zone 2\&quot;\n            B2[Broker 2]\n            BK2[BookKeeper 2]\n            ZK2[ZooKeeper 2]\n            P2[Proxy 2]\n        end\n        \n        subgraph \&quot;Availability Zone 3\&quot;\n            B3[Broker 3]\n            BK3[BookKeeper 3]\n            ZK3[ZooKeeper 3]\n            P3[Proxy 3]\n        end\n        \n        subgraph \&quot;Monitoring\&quot;\n            PROM[Prometheus]\n            GRAF[Grafana]\n            ALERT[AlertManager]\n        end\n        \n        subgraph \&quot;Management\&quot;\n            ADMIN[Pulsar Admin]\n            MANAGER[Pulsar Manager]\n            SCHEMA[Schema Registry]\n        end\n    end\n    \n    subgraph \&quot;Load Balancer\&quot;\n        LB[Load Balancer]\n    end\n    \n    subgraph \&quot;Applications\&quot;\n        APPS[Applications]\n        FUNCTIONS[Pulsar Functions]\n    end\n    \n    APPS --&gt; LB\n    FUNCTIONS --&gt; LB\n    \n    LB --&gt; P1\n    LB --&gt; P2\n    LB --&gt; P3\n    \n    P1 --&gt; B1\n    P2 --&gt; B2\n    P3 --&gt; B3\n    \n    B1 --&gt; BK1\n    B1 --&gt; BK2\n    B2 --&gt; BK2\n    B2 --&gt; BK3\n    B3 --&gt; BK3\n    B3 --&gt; BK1\n    \n    ZK1 --&gt; ZK2\n    ZK2 --&gt; ZK3\n    ZK3 --&gt; ZK1\n    \n    ZK1 --&gt; B1\n    ZK2 --&gt; B2\n    ZK3 --&gt; B3\n    \n    B1 --&gt; PROM\n    B2 --&gt; PROM\n    B3 --&gt; PROM\n    \n    PROM --&gt; GRAF\n    PROM --&gt; ALERT\n    \n    ADMIN --&gt; B1\n    MANAGER --&gt; B1&quot;}" id="44b49c8f16534508">
          <mxCell style="shape=image;noLabel=1;verticalAlign=top;imageAspect=1;image=data:image/svg+xml,PHN2ZyB3aWR0aD0iMjAwIiBoZWlnaHQ9IjIwMCIgeG1sbnM9Imh0dHA6Ly93d3cudzMub3JnLzIwMDAvc3ZnIj48cmVjdCB3aWR0aD0iMjAwIiBoZWlnaHQ9IjIwMCIgZmlsbD0iI2Y5ZjlmOSIgc3Ryb2tlPSIjY2NjIi8+PHRleHQgeD0iMTAwIiB5PSIxMDAiIHRleHQtYW5jaG9yPSJtaWRkbGUiIGZvbnQtZmFtaWx5PSJBcmlhbCIgZm9udC1zaXplPSIxNCIgZmlsbD0iIzMzMyI+TWVybWFpZCBEaWFncmFtPC90ZXh0Pjwvc3ZnPg==;" vertex="1" parent="1">
            <mxGeometry x="260" y="130" width="200" height="200" as="geometry" />
          </mxCell>
        </UserObject>
      </root>
    </mxGraphModel>
  </diagram>
</mxfile>